#!OML:ASF H:\Martial Arts Walks\Project 1\Capture day 1\Session 1\male.ASF
:FULLY-SPECIFIED
:DEGREES
1747
root 0.535372 14.1848 -14.0117 12.6483 27.3252 13.7103
lowerback 10.5181 2.41085 -14.2095
upperback -2.30207 1.19187 -1.18505
thorax -8.78089 1.28279 6.48844
lowerneck 0.153341 -11.4738 -11.6825
upperneck 4.66102 -15.5446 7.72048
head 2.87235 -7.79876 3.56682
rclavicle -3.52346e-014 2.38542e-015
rhumerus 45.7812 -9.54492 -58.335
rradius 18.8966
rwrist 26.6836
rhand -20.3677 -33.9978
rfingers 7.12502
rthumb 5.98487 -63.8932
lclavicle -3.52346e-014 2.38542e-015
lhumerus -72.2287 -15.3409 102.093
lradius 104.931
lwrist 74.9283
lhand -17.5957 62.699
lfingers 7.12502
lthumb 8.66055 267.499
rfemur -68.8181 -25.1827 7.19211
rtibia 68.9707
rfoot -5.19386 11.8556
rtoes 6.11467
lfemur 11.9258 3.94765 -14.0688
ltibia 26.6497
lfoot -15.4326 32.0652
ltoes -24.255
1748
root 0.531631 14.1906 -14.0105 12.7061 27.1605 13.6968
lowerback 10.4437 2.43466 -14.3052
upperback -2.33833 1.21804 -1.21434
thorax -8.78743 1.30171 6.50475
lowerneck 0.193188 -11.4927 -11.659
upperneck 4.67871 -15.5786 7.77152
head 2.87685 -7.81524 3.57789
rclavicle 3.72721e-015 -2.54444e-014
rhumerus 45.6893 -9.43048 -58.3601
rradius 18.923
rwrist 26.6175
rhand -20.4355 -34.0175
rfingers 7.12502
rthumb 5.91932 -63.9148
lclavicle 3.72721e-015 -2.54444e-014
lhumerus -72.2248 -15.3533 102.1
lradius 104.877
lwrist 74.9999
lhand -17.4294 62.9972
lfingers 7.12502
lthumb 8.821 267.207
rfemur -68.9357 -25.1422 7.30133
rtibia 68.906
rfoot -5.29709 11.5443
rtoes 5.00254
lfemur 12.0023 3.99216 -14.1374
ltibia 26.4122
lfoot -15.3418 32.0891
ltoes -24.0597
1749
root 0.526902 14.1969 -14.0099 12.7515 27.017 13.6876
lowerback 10.4084 2.45573 -14.4014
upperback -2.37073 1.2345 -1.23778
thorax -8.81047 1.31702 6.52901
lowerneck 0.238978 -11.514 -11.6413
upperneck 4.66253 -15.6147 7.81798
head 2.87048 -7.83293 3.58972
rclavicle -1.91827e-014 5.80451e-014
rhumerus 45.6178 -9.3258 -58.3863
rradius 18.955
rwrist 26.5446
rhand -20.4955 -34.0549
rfingers 7.12502
rthumb 5.8614 -63.9538
lclavicle -1.91827e-014 5.80451e-014
lhumerus -72.2148 -15.4021 102.13
lradius 104.819
lwrist 75.0992
lhand -17.2751 63.1093
lfingers 7.12502
lthumb 8.96985 267.101
rfemur -69.0286 -25.1213 7.40706
rtibia 68.8359
rfoot -5.39887 11.2522
rtoes 3.95394
lfemur 12.0897 4.03231 -14.195
ltibia 26.1643
lfoot -15.2399 32.0984
ltoes -23.8974
1750
root 0.521326 14.2031 -14.0098 12.7867 26.8957 13.6869
lowerback 10.4064 2.47167 -14.5027
upperback -2.3985 1.23831 -1.25601
thorax -8.84535 1.32723 6.56386
lowerneck 0.288006 -11.5321 -11.6273
upperneck 4.6154 -15.6452 7.86234
head 2.85388 -7.84798 3.60304
rclavicle -8.41356e-014 -6.36111e-015
rhumerus 45.5755 -9.23859 -58.4254
rradius 18.9816
rwrist 26.4947
rhand -20.5343 -34.0986
rfingers 7.12502
rthumb 5.82398 -63.9985
lclavicle -8.41356e-014 -6.36111e-015
lhumerus -72.1977 -15.4789 102.184
lradius 104.764
lwrist 75.191
lhand -17.1517 63.0174
lfingers 7.12502
lthumb 9.089 267.198
rfemur -69.0992 -25.1193 7.50328
rtibia 68.7631
rfoot -5.49063 11.005
rtoes 3.01946
lfemur 12.182 4.06309 -14.2473
ltibia 25.9196
lfoot -15.1324 32.1
ltoes -23.7615
1751
root 0.514989 14.209 -14.0099 12.8144 26.7971 13.6895
lowerback 10.4294 2.48369 -14.6012
upperback -2.4205 1.2336 -1.27052
thorax -8.88634 1.33344 6.60253
lowerneck 0.328319 -11.5503 -11.6118
upperneck 4.54702 -15.6736 7.90177
head 2.83156 -7.86181 3.61499
rclavicle 4.22417e-015 5.56597e-015
rhumerus 45.5624 -9.1753 -58.4664
rradius 18.9964
rwrist 26.4781
rhand -20.5484 -34.1446
rfingers 7.12502
rthumb 5.81041 -64.045
lclavicle 4.22417e-015 5.56597e-015
lhumerus -72.1754 -15.5901 102.264
lradius 104.731
lwrist 75.3061
lhand -17.2111 62.8537
lfingers 7.12502
lthumb 9.03165 267.36
rfemur -69.1545 -25.1303 7.59371
rtibia 68.691
rfoot -5.57044 10.8165
rtoes 2.23256
lfemur 12.2698 4.07784 -14.2919
ltibia 25.69
lfoot -15.0276 32.0988
ltoes -23.6431
1752
root 0.508006 14.2139 -14.01 12.8399 26.715 13.6953
lowerback 10.4673 2.49203 -14.6971
upperback -2.43798 1.22207 -1.28382
thorax -8.92936 1.33621 6.64221
lowerneck 0.360767 -11.565 -11.5974
upperneck 4.46149 -15.6961 7.94532
head 2.8052 -7.87241 3.62879
rclavicle -6.38099e-014 -3.26007e-014
rhumerus 45.5778 -9.13677 -58.5135
rradius 18.9963
rwrist 26.5125
rhand -20.5391 -34.1957
rfingers 7.12502
rthumb 5.81934 -64.0958
lclavicle -6.38099e-014 -3.26007e-014
lhumerus -72.1508 -15.7303 102.363
lradius 104.733
lwrist 75.4606
lhand -17.5254 62.6976
lfingers 7.12502
lthumb 8.72839 267.503
rfemur -69.2056 -25.1449 7.67706
rtibia 68.6246
rfoot -5.63215 10.6862
rtoes 1.62121
lfemur 12.3452 4.07969 -14.3315
ltibia 25.4848
lfoot -14.9284 32.099
ltoes -23.5388
